<mxfile host="app.diagrams.net" modified="2021-03-15T13:20:49.070Z" agent="5.0 (Windows NT 10.0; Win64; x64) AppleWebKit/537.36 (KHTML, like Gecko) Chrome/89.0.4389.82 Safari/537.36" etag="6Vqu00uKP-g0t-FMu9CI" version="14.4.4" type="github">
  <diagram id="NZr3LmJ7zXBB8AUWMbsr" name="Page-1">
    <mxGraphModel dx="782" dy="469" grid="1" gridSize="10" guides="1" tooltips="1" connect="1" arrows="1" fold="1" page="1" pageScale="1" pageWidth="3300" pageHeight="4681" math="0" shadow="0">
      <root>
        <mxCell id="0" />
        <mxCell id="1" parent="0" />
        <mxCell id="22OhDzC54vz710xvA811-4" style="edgeStyle=orthogonalEdgeStyle;rounded=0;orthogonalLoop=1;jettySize=auto;html=1;exitX=0.5;exitY=1;exitDx=0;exitDy=0;" edge="1" parent="1" source="22OhDzC54vz710xvA811-1" target="22OhDzC54vz710xvA811-3">
          <mxGeometry relative="1" as="geometry" />
        </mxCell>
        <mxCell id="22OhDzC54vz710xvA811-6" style="edgeStyle=orthogonalEdgeStyle;rounded=0;orthogonalLoop=1;jettySize=auto;html=1;exitX=1;exitY=0.5;exitDx=0;exitDy=0;entryX=0;entryY=0.5;entryDx=0;entryDy=0;" edge="1" parent="1" source="22OhDzC54vz710xvA811-1" target="22OhDzC54vz710xvA811-5">
          <mxGeometry relative="1" as="geometry" />
        </mxCell>
        <mxCell id="22OhDzC54vz710xvA811-8" style="edgeStyle=orthogonalEdgeStyle;rounded=0;orthogonalLoop=1;jettySize=auto;html=1;exitX=0.5;exitY=0;exitDx=0;exitDy=0;entryX=0;entryY=0.5;entryDx=0;entryDy=0;" edge="1" parent="1" source="22OhDzC54vz710xvA811-1" target="22OhDzC54vz710xvA811-7">
          <mxGeometry relative="1" as="geometry" />
        </mxCell>
        <mxCell id="22OhDzC54vz710xvA811-10" style="edgeStyle=orthogonalEdgeStyle;rounded=0;orthogonalLoop=1;jettySize=auto;html=1;exitX=0;exitY=0.5;exitDx=0;exitDy=0;entryX=1;entryY=0.5;entryDx=0;entryDy=0;" edge="1" parent="1" source="22OhDzC54vz710xvA811-1" target="22OhDzC54vz710xvA811-9">
          <mxGeometry relative="1" as="geometry" />
        </mxCell>
        <mxCell id="22OhDzC54vz710xvA811-1" value="OBSERVATION" style="rounded=1;arcSize=10;whiteSpace=wrap;html=1;align=center;fillColor=#dae8fc;strokeColor=#6c8ebf;" vertex="1" parent="1">
          <mxGeometry x="370" y="160" width="100" height="40" as="geometry" />
        </mxCell>
        <mxCell id="22OhDzC54vz710xvA811-2" style="edgeStyle=orthogonalEdgeStyle;rounded=0;orthogonalLoop=1;jettySize=auto;html=1;exitX=0.5;exitY=1;exitDx=0;exitDy=0;" edge="1" parent="1" source="22OhDzC54vz710xvA811-1" target="22OhDzC54vz710xvA811-1">
          <mxGeometry relative="1" as="geometry" />
        </mxCell>
        <mxCell id="22OhDzC54vz710xvA811-3" value="LOCATION" style="rounded=1;arcSize=10;whiteSpace=wrap;html=1;align=center;fillColor=#dae8fc;strokeColor=#6c8ebf;" vertex="1" parent="1">
          <mxGeometry x="340" y="280" width="70" height="40" as="geometry" />
        </mxCell>
        <mxCell id="22OhDzC54vz710xvA811-19" style="edgeStyle=orthogonalEdgeStyle;rounded=0;orthogonalLoop=1;jettySize=auto;html=1;exitX=1;exitY=0.5;exitDx=0;exitDy=0;entryX=0;entryY=0.5;entryDx=0;entryDy=0;" edge="1" parent="1" source="22OhDzC54vz710xvA811-5" target="22OhDzC54vz710xvA811-18">
          <mxGeometry relative="1" as="geometry" />
        </mxCell>
        <mxCell id="22OhDzC54vz710xvA811-5" value="ACTIVITY" style="rounded=1;arcSize=10;whiteSpace=wrap;html=1;align=center;fillColor=#dae8fc;strokeColor=#6c8ebf;" vertex="1" parent="1">
          <mxGeometry x="630" y="140" width="70" height="40" as="geometry" />
        </mxCell>
        <mxCell id="22OhDzC54vz710xvA811-7" value="COUNTRY_PROGRAMME" style="rounded=1;arcSize=10;whiteSpace=wrap;html=1;align=center;fillColor=#dae8fc;strokeColor=#6c8ebf;" vertex="1" parent="1">
          <mxGeometry x="500" y="80" width="150" height="40" as="geometry" />
        </mxCell>
        <mxCell id="22OhDzC54vz710xvA811-9" value="ONA" style="rounded=1;arcSize=10;whiteSpace=wrap;html=1;align=center;fillColor=#dae8fc;strokeColor=#6c8ebf;" vertex="1" parent="1">
          <mxGeometry x="200" y="90" width="50" height="40" as="geometry" />
        </mxCell>
        <mxCell id="22OhDzC54vz710xvA811-13" style="edgeStyle=orthogonalEdgeStyle;rounded=0;orthogonalLoop=1;jettySize=auto;html=1;exitX=0.5;exitY=0;exitDx=0;exitDy=0;entryX=0.5;entryY=1;entryDx=0;entryDy=0;" edge="1" parent="1" source="22OhDzC54vz710xvA811-12" target="22OhDzC54vz710xvA811-9">
          <mxGeometry relative="1" as="geometry" />
        </mxCell>
        <mxCell id="22OhDzC54vz710xvA811-12" value="MEDAIR_STAFF" style="rounded=1;arcSize=10;whiteSpace=wrap;html=1;align=center;fillColor=#dae8fc;strokeColor=#6c8ebf;" vertex="1" parent="1">
          <mxGeometry x="175" y="190" width="100" height="40" as="geometry" />
        </mxCell>
        <mxCell id="22OhDzC54vz710xvA811-16" style="edgeStyle=orthogonalEdgeStyle;rounded=0;orthogonalLoop=1;jettySize=auto;html=1;exitX=1;exitY=0.5;exitDx=0;exitDy=0;entryX=0;entryY=0.5;entryDx=0;entryDy=0;" edge="1" parent="1" source="22OhDzC54vz710xvA811-14" target="22OhDzC54vz710xvA811-15">
          <mxGeometry relative="1" as="geometry" />
        </mxCell>
        <mxCell id="22OhDzC54vz710xvA811-17" style="edgeStyle=orthogonalEdgeStyle;rounded=0;orthogonalLoop=1;jettySize=auto;html=1;exitX=0;exitY=0.5;exitDx=0;exitDy=0;entryX=0.898;entryY=1.051;entryDx=0;entryDy=0;entryPerimeter=0;" edge="1" parent="1" source="22OhDzC54vz710xvA811-14" target="22OhDzC54vz710xvA811-1">
          <mxGeometry relative="1" as="geometry" />
        </mxCell>
        <mxCell id="22OhDzC54vz710xvA811-14" value="FIELD" style="rounded=1;arcSize=10;whiteSpace=wrap;html=1;align=center;fillColor=#dae8fc;strokeColor=#6c8ebf;" vertex="1" parent="1">
          <mxGeometry x="510" y="240" width="50" height="40" as="geometry" />
        </mxCell>
        <mxCell id="22OhDzC54vz710xvA811-15" value="FIELD_DIMENSION" style="rounded=1;arcSize=10;whiteSpace=wrap;html=1;align=center;fillColor=#dae8fc;strokeColor=#6c8ebf;" vertex="1" parent="1">
          <mxGeometry x="630" y="240" width="120" height="40" as="geometry" />
        </mxCell>
        <mxCell id="22OhDzC54vz710xvA811-18" value="SECTOR" style="rounded=1;arcSize=10;whiteSpace=wrap;html=1;align=center;fillColor=#dae8fc;strokeColor=#6c8ebf;" vertex="1" parent="1">
          <mxGeometry x="760" y="140" width="70" height="40" as="geometry" />
        </mxCell>
        <mxCell id="22OhDzC54vz710xvA811-21" value="CONCEPTUAL MODEL FOR AGGREGATED DATA" style="swimlane;startSize=23;fillColor=#d5e8d4;strokeColor=#82b366;" vertex="1" parent="1">
          <mxGeometry x="140" y="30" width="720" height="350" as="geometry" />
        </mxCell>
      </root>
    </mxGraphModel>
  </diagram>
</mxfile>
